<?xml version="1.0" encoding="UTF-8"?>
<svg width="14px" height="15px" viewBox="0 0 14 15" version="1.1" xmlns="http://www.w3.org/2000/svg" xmlns:xlink="http://www.w3.org/1999/xlink">
    <title>icon/14/上移</title>
    <g id="Transfer-穿梭框" stroke="none" stroke-width="1" fill="none" fill-rule="evenodd">
        <g transform="translate(-1779.000000, -452.000000)" fill="#8B3CE9" id="icon/14/上移">
            <g transform="translate(1779.000000, 452.260000)">
                <rect id="矩形" fill-rule="nonzero" opacity="0" x="0" y="0" width="14" height="14"></rect>
                <path d="M7,0 C10.8733333,0 14,3.12666666 14,7 C14,10.8733333 10.8733333,14 7,14 C3.12666666,14 0,10.8733333 0,7 C0,3.12666666 3.12666666,0 7,0 Z M7,0.933333338 C3.64,0.933333338 0.933333338,3.64 0.933333338,7 C0.933333338,10.36 3.64,13.0666667 7,13.0666667 C10.36,13.0666667 13.0666667,10.36 13.0666667,7 C13.0666667,3.64 10.36,0.933333338 7,0.933333338 Z M7.00992889,3.3 C7.03274424,3.30011321 7.05551456,3.30203993 7.07802422,3.30576387 L7.10526236,3.31047817 L7.13931002,3.31833532 L7.15142901,3.32176757 L7.1634053,3.32566867 C7.1738815,3.32881153 7.1838339,3.33300201 7.1943101,3.33666869 C7.21473496,3.34456891 7.23452327,3.35402527 7.25350067,3.36495444 L7.27235784,3.37595446 L7.32346328,3.41142906 L7.327,3.415 L7.37031035,3.45295457 L10.513172,6.59581619 C10.6454795,6.72812374 10.6971515,6.92096619 10.6487236,7.10170166 C10.6002957,7.28243713 10.4591252,7.4236076 10.2783897,7.47203552 C10.0976543,7.52046345 9.90481181,7.46879146 9.77250426,7.33648391 L7.52378677,5.08829023 L7.52378677,10.2047766 C7.52375174,10.4703352 7.32499704,10.6938498 7.0612623,10.7249202 L6.99997649,10.7285868 C6.71068407,10.7285868 6.47616622,10.494069 6.47616622,10.2047766 L6.47616622,5.08829023 L4.22744873,7.33700772 C4.04083161,7.52360731 3.74454032,7.54223775 3.53601917,7.38048397 L3.48678101,7.33700772 C3.38845325,7.23884702 3.33319923,7.10561223 3.33319923,6.96667386 C3.33319923,6.82773549 3.38845325,6.6945007 3.48678101,6.59634 L6.62964264,3.45347837 L6.67259507,3.41524023 L6.68830938,3.40319258 L6.70755949,3.38950817 L6.72759515,3.37700207 C6.73388087,3.3733354 6.7401666,3.36914492 6.74697613,3.36600206 C6.76619427,3.35569347 6.785953,3.3464261 6.80616669,3.33824012 L6.83759531,3.32671629 L6.86169058,3.31938295 L6.89573825,3.31100198 L6.92297638,3.30628769 L6.96134376,3.30154689 L6.973,3.3 L6.99054791,3.3 L7.00992889,3.3 Z" id="形状结合"></path>
            </g>
        </g>
    </g>
</svg>