<?xml version="1.0" encoding="UTF-8"?>
<svg width="14px" height="14px" viewBox="0 0 14 14" version="1.1" xmlns="http://www.w3.org/2000/svg" xmlns:xlink="http://www.w3.org/1999/xlink">
    <title>icon/14/保存</title>
    <g id="icon/14/保存" stroke="none" stroke-width="1" fill="none" fill-rule="evenodd">
        <g id="设置备份" transform="translate(7.000000, 7.000000) scale(-1, 1) translate(-7.000000, -7.000000) " fill-rule="nonzero">
            <rect id="矩形" fill="#000000" opacity="0" x="0" y="0" width="14" height="14"></rect>
            <path d="M7,0 C12.6,0 14,1.4 14,7 C14,12.6 12.6,14 7,14 C1.4,14 0,12.6 0,7 C0,1.4 1.4,0 7,0 Z" id="路径" fill-opacity="0.7" fill="#3C51E9"></path>
        </g>
        <g id="baocun" transform="translate(3.500000, 3.500000)" fill="#FFFFFF" fill-rule="nonzero">
            <path d="M4.59703125,0 C4.83070172,0 5.05466218,0.0934762982 5.21901041,0.259583336 L6.74697916,1.80395834 C6.90907171,1.96777303 7,2.18892056 7,2.419375 L7,6.453125 C7,6.75515572 6.75515572,7 6.453125,7 L0.546875,7 C0.244844277,7 0,6.75515572 0,6.453125 L0,0.546875 C0,0.244844277 0.244844277,0 0.546875,0 L4.59703125,0 Z M5.06770834,3.79166666 L1.93229166,3.79166666 C1.88394491,3.79166666 1.83757831,3.81087234 1.80339199,3.84505866 C1.76920567,3.87924498 1.75,3.92561158 1.75,3.97395834 L1.75,7 L2.33333334,7 L2.33333334,4.37481771 L4.66666666,4.37481771 L4.66666666,7 L5.25,7 L5.25,4.08333334 L5.24981771,4.08315104 L5.25,3.97395834 C5.25,3.88154105 5.18081902,3.80375553 5.08903646,3.79294271 L5.06770834,3.79166666 Z M2.36979166,1.5859375 L1.34895834,1.5859375 C1.32882295,1.5859375 1.3125,1.60226045 1.3125,1.62239584 L1.3125,2.09635416 C1.3125,2.11640625 1.32890625,2.1328125 1.34895834,2.1328125 L2.36979166,2.1328125 C2.38992705,2.1328125 2.40625,2.11648955 2.40625,2.09635416 L2.40625,1.62239584 C2.40625,1.60226045 2.38992705,1.5859375 2.36979166,1.5859375 L2.36979166,1.5859375 Z" id="形状"></path>
        </g>
    </g>
</svg>