<?xml version="1.0" encoding="UTF-8"?>
<svg width="14px" height="14px" viewBox="0 0 14 14" version="1.1" xmlns="http://www.w3.org/2000/svg" xmlns:xlink="http://www.w3.org/1999/xlink">
    <title>icon/14/全部展开</title>
    <g id="icon/14/全部展开" stroke="none" stroke-width="1" fill="none" fill-rule="evenodd">
        <g id="设置备份" transform="translate(7.000000, 7.000000) scale(-1, 1) translate(-7.000000, -7.000000) " fill-rule="nonzero">
            <rect id="矩形" fill="#000000" opacity="0" x="0" y="0" width="14" height="14"></rect>
            <path d="M7,0 C12.6,0 14,1.4 14,7 C14,12.6 12.6,14 7,14 C1.4,14 0,12.6 0,7 C0,1.4 1.4,0 7,0 Z" id="路径" fill-opacity="0.7" fill="#F8C33B"></path>
            <path d="M6.63259828,5.39801853 L3.77459082,8.49419328 C3.58728894,8.69710365 3.59994212,9.01343318 3.80285249,9.20073506 C3.89521361,9.28599148 4.01629753,9.33333333 4.14199254,9.33333333 L9.85800746,9.33333333 C10.1341498,9.33333333 10.3580075,9.10947571 10.3580075,8.83333333 C10.3580075,8.70763832 10.3106656,8.58655441 10.2254092,8.49419328 L7.36740172,5.39801853 C7.18009984,5.19510816 6.86377032,5.18245498 6.66085995,5.36975686 C6.65106649,5.37879698 6.6416384,5.38822507 6.63259828,5.39801853 Z" id="路径" fill="#FFFFFF" transform="translate(7.000000, 7.166667) scale(1, -1) translate(-7.000000, -7.166667) "></path>
        </g>
    </g>
</svg>