<?xml version="1.0" encoding="UTF-8"?>
<svg width="14px" height="14px" viewBox="0 0 14 14" version="1.1" xmlns="http://www.w3.org/2000/svg" xmlns:xlink="http://www.w3.org/1999/xlink">
    <title>icon/14/列表展开01</title>
    <g id="icon/14/列表展开01" stroke="none" stroke-width="1" fill="none" fill-rule="evenodd">
        <path d="M12.2551973,0 C13.2188252,0 14,0.782699537 14,1.74480274 L14,12.2551973 C14,13.2188252 13.2173005,14 12.2551973,14 L1.74480274,14 C0.781174797,14 0,13.2173005 0,12.2551973 L0,1.74480274 C0,0.781174797 0.782699537,0 1.74480274,0 L12.2551973,0 Z M12.2551973,0.875 L1.74480274,0.875 C1.29955385,0.875 0.93121278,1.21133455 0.880864306,1.64348445 L0.875,1.74480274 L0.875,12.2551973 C0.875,12.7004462 1.21133455,13.0687872 1.64348445,13.1191357 L1.74480274,13.125 L12.2551973,13.125 C12.7004462,13.125 13.0687872,12.7886654 13.1191357,12.3565155 L13.125,12.2551973 L13.125,1.74480274 C13.125,1.29955385 12.7886654,0.93121278 12.3565155,0.880864306 L12.2551973,0.875 Z M7,3.63125 C7.28994949,3.63125 7.525,3.86630051 7.525,4.15625 L7.525,6.50125 L9.975,6.50125 C10.2649495,6.50125 10.5,6.73630051 10.5,7.02625 C10.5,7.31619949 10.2649495,7.55125 9.975,7.55125 L7.525,7.55125 L7.525,10.10625 C7.525,10.3961995 7.28994949,10.63125 7,10.63125 C6.71005051,10.63125 6.475,10.3961995 6.475,10.10625 L6.475,7.55125 L4.025,7.55125 C3.73505051,7.55125 3.5,7.31619949 3.5,7.02625 C3.5,6.73630051 3.73505051,6.50125 4.025,6.50125 L6.475,6.50125 L6.475,4.15625 C6.475,3.86630051 6.71005051,3.63125 7,3.63125 Z" id="形状结合" fill="#3C51E9" fill-rule="nonzero"></path>
    </g>
</svg>