<?xml version="1.0" encoding="UTF-8"?>
<svg width="14px" height="14px" viewBox="0 0 14 14" version="1.1" xmlns="http://www.w3.org/2000/svg" xmlns:xlink="http://www.w3.org/1999/xlink">
    <title>icon/14/模版管理</title>
    <g id="icon/14/模版管理" stroke="none" stroke-width="1" fill="none" fill-rule="evenodd">
        <g id="设置备份" transform="translate(7.000000, 7.000000) scale(-1, 1) translate(-7.000000, -7.000000) " fill-rule="nonzero">
            <rect id="矩形" fill="#000000" opacity="0" x="0" y="0" width="14" height="14"></rect>
            <path d="M7,0 C12.6,0 14,1.4 14,7 C14,12.6 12.6,14 7,14 C1.4,14 0,12.6 0,7 C0,1.4 1.4,0 7,0 Z" id="路径" fill-opacity="0.7" fill="#8B3CE9"></path>
            <g id="ai-module" transform="translate(3.500000, 3.500000)" fill="#FFFFFF">
                <path d="M2.625,3.28125 L0.65625,3.28125 C0.30625,3.28125 0,2.975 0,2.625 L0,0.65625 C0,0.30625 0.30625,0 0.65625,0 L2.625,0 C2.975,0 3.28125,0.30625 3.28125,0.65625 L3.28125,2.625 C3.28125,2.975 2.975,3.28125 2.625,3.28125 Z" id="路径"></path>
                <path d="M2.625,7 L0.65625,7 C0.30625,7 0,6.69375 0,6.34375 L0,4.375 C0,4.025 0.30625,3.71875 0.65625,3.71875 L2.625,3.71875 C2.975,3.71875 3.28125,4.025 3.28125,4.375 L3.28125,6.3 C3.28125,6.69375 2.975,7 2.625,7 Z" id="路径"></path>
                <path d="M5.38125,7 L5.38125,7 C4.4625,7 3.71875,6.25625 3.71875,5.38125 L3.71875,5.38125 C3.71875,4.4625 4.4625,3.7625 5.3375,3.7625 L5.3375,3.7625 C6.25625,3.7625 6.95625,4.50625 6.95625,5.38125 L6.95625,5.38125 C7,6.25625 6.25625,7 5.38125,7 Z" id="路径"></path>
                <path d="M6.34375,3.28125 L4.375,3.28125 C4.025,3.28125 3.71875,2.975 3.71875,2.625 L3.71875,0.65625 C3.71875,0.30625 4.025,0 4.375,0 L6.3,0 C6.69375,0 7,0.30625 7,0.65625 L7,2.625 C7,2.975 6.69375,3.28125 6.34375,3.28125 Z" id="路径"></path>
            </g>
        </g>
    </g>
</svg>