<?xml version="1.0" encoding="UTF-8"?>
<svg width="14px" height="15px" viewBox="0 0 14 15" version="1.1" xmlns="http://www.w3.org/2000/svg" xmlns:xlink="http://www.w3.org/1999/xlink">
    <title>icon/14/添加</title>
    <g id="Transfer-穿梭框" stroke="none" stroke-width="1" fill="none" fill-rule="evenodd">
        <g transform="translate(-1373.000000, -1483.000000)" fill="#F8C33B" id="编组-19备份-4">
            <g transform="translate(1177.000000, 1407.500000)">
                <g id="编组-3" transform="translate(0.000000, 36.758419)">
                    <g id="icon/14/添加" transform="translate(196.000000, 39.001581)">
                        <rect id="矩形" fill-rule="nonzero" opacity="0" x="0" y="0" width="14" height="14"></rect>
                        <path d="M7,0 C10.8733333,0 14,3.12666666 14,7 C14,10.8733333 10.8733333,14 7,14 C3.12666666,14 0,10.8733333 0,7 C0,3.12666666 3.12666666,0 7,0 Z M7,0.933333338 C3.64,0.933333338 0.933333338,3.64 0.933333338,7 C0.933333338,10.36 3.64,13.0666667 7,13.0666667 C10.36,13.0666667 13.0666667,10.36 13.0666667,7 C13.0666667,3.64 10.36,0.933333338 7,0.933333338 Z M7.02333334,3.99 C7.30333334,3.99 7.49,4.17666666 7.49,4.45666666 L7.50833334,6.505 L9.52,6.48666666 C9.76888889,6.48666666 9.94403293,6.67102881 10.0126566,6.90865112 L10.0333333,7 L10.0333333,7.04666666 C10.0333333,7.32666668 9.84666666,7.51333334 9.56666666,7.51333334 L7.51833334,7.513 L7.53666668,9.49666666 C7.53666668,9.74555555 7.35230453,9.92069959 7.11468222,9.98932327 L7.02333334,10.01 L6.97666668,10.01 C6.69666666,10.01 6.51,9.82333332 6.51,9.54333332 L6.50933334,7.513 L4.48,7.51333334 C4.23111111,7.51333334 4.05596708,7.36584362 4.02011889,7.13641518 L4.01333334,7.04666666 L4.01333334,7 C4.01333334,6.72 4.2,6.53333334 4.48,6.53333334 L6.50933334,6.514 L6.51,4.45666666 C6.51,4.20777777 6.65748972,4.03263374 6.88691816,3.99678555 L6.97666668,3.99 L7.02333334,3.99 Z" id="形状结合"></path>
                    </g>
                </g>
            </g>
        </g>
    </g>
</svg>