<?xml version="1.0" encoding="UTF-8"?>
<svg width="14px" height="15px" viewBox="0 0 14 15" version="1.1" xmlns="http://www.w3.org/2000/svg" xmlns:xlink="http://www.w3.org/1999/xlink">
    <title>icon/14/移除</title>
    <g id="Transfer-穿梭框" stroke="none" stroke-width="1" fill="none" fill-rule="evenodd">
        <g transform="translate(-1623.000000, -1483.000000)" fill="#EE5B5B" id="编组-19备份-4">
            <g transform="translate(1177.000000, 1407.500000)">
                <g id="编组-3备份" transform="translate(250.000000, 73.760000)">
                    <g id="icon/14/移除" transform="translate(196.000000, 2.000000)">
                        <rect id="矩形" fill-rule="nonzero" opacity="0" x="0" y="0" width="14" height="14"></rect>
                        <path d="M7,0 C10.8733333,0 14,3.12666666 14,7 C14,10.8733333 10.8733333,14 7,14 C3.12666666,14 0,10.8733333 0,7 C0,3.12666666 3.12666666,0 7,0 Z M7,0.933333338 C3.64,0.933333338 0.933333338,3.64 0.933333338,7 C0.933333338,10.36 3.64,13.0666667 7,13.0666667 C10.36,13.0666667 13.0666667,10.36 13.0666667,7 C13.0666667,3.64 10.36,0.933333338 7,0.933333338 Z M9.52,6.48666666 C9.8,6.48666666 9.98666668,6.72 10.0333333,7 L10.0333333,7.04666666 C10.0333333,7.32666668 9.84666666,7.51333334 9.56666666,7.51333334 L4.48,7.51333334 C4.2,7.51333334 4.01333334,7.32666666 4.01333334,7.04666666 L4.01333334,7 C4.01333334,6.72 4.2,6.53333334 4.48,6.53333334 Z" id="形状结合"></path>
                    </g>
                </g>
            </g>
        </g>
    </g>
</svg>