<?xml version="1.0" encoding="UTF-8"?>
<svg width="14px" height="15px" viewBox="0 0 14 15" version="1.1" xmlns="http://www.w3.org/2000/svg" xmlns:xlink="http://www.w3.org/1999/xlink">
    <title>icon/14/置顶</title>
    <g id="Transfer-穿梭框" stroke="none" stroke-width="1" fill="none" fill-rule="evenodd">
        <g transform="translate(-1819.000000, -452.000000)" fill="#8B3CE9" fill-rule="nonzero" id="icon/14/置顶">
            <g transform="translate(1819.000000, 452.260000)" id="置顶">
                <rect id="矩形" opacity="0" x="0" y="0" width="14" height="14"></rect>
                <path d="M6.49397,2.12051 L1.55589,6.86287 C1.29584,7.11256 1.29584,7.51856 1.55589,7.76825 C1.81594,8.01801 2.23867,8.01801 2.49872,7.76825 L6.2993,4.11964 L6.2993,13.35964 C6.2993,13.71314 6.59666,14 6.96605,14 C7.33411,14 7.63287,13.71314 7.63287,13.35964 L7.63287,4.11964 L11.43079,7.76825 C11.69077,8.01801 12.11357,8.01801 12.37355,7.76825 C12.6336,7.51856 12.6336,7.11256 12.37355,6.86287 L7.4368,2.12051 C7.3115,2.00011 7.1421,1.93361 6.96605,1.93361 C6.78874,1.93361 6.61934,2.00011 6.49397,2.12051 Z M12.70325,1.28065 C13.07131,1.28065 13.37,0.99379 13.37,0.64036 C13.37,0.28686 13.07131,0 12.70325,0 L1.22675,0 C0.85736,0 0.56,0.28686 0.56,0.64036 C0.56,0.99386 0.85736,1.28065 1.22675,1.28065 L12.70325,1.28065 Z" id="形状"></path>
            </g>
        </g>
    </g>
</svg>