<?xml version="1.0" encoding="UTF-8"?>
<svg width="16px" height="16px" viewBox="0 0 16 16" version="1.1" xmlns="http://www.w3.org/2000/svg" xmlns:xlink="http://www.w3.org/1999/xlink">
    <title>icon/16/dot</title>
    <g id="icon/16/dot" stroke="none" stroke-width="1" fill="none" fill-rule="evenodd">
        <g id="更多" fill-rule="nonzero">
            <rect id="矩形" fill="#000000" opacity="0" x="0" y="0" width="16" height="16"></rect>
            <path d="M1.77460938,6.25698438 C2.73720313,6.25698438 3.51771875,7.03746875 3.51771875,8.00001562 C3.51771875,8.9625625 2.73721875,9.74304687 1.77460938,9.74304687 C0.812015625,9.74304687 0.0315,8.9625625 0.0315,8.00001562 C0.0315,7.03746875 0.81203125,6.25698438 1.77460938,6.25698438 Z M7.99998438,6.25698438 C8.96257813,6.25698438 9.74309375,7.03746875 9.74309375,8.00001562 C9.74309375,8.9625625 8.96259375,9.74304687 7.99998438,9.74304687 C7.03739063,9.74304687 6.256875,8.9625625 6.256875,8.00001562 C6.256875,7.03746875 7.03739063,6.25698438 7.99998438,6.25698438 Z M14.2253438,6.25698438 C15.1879375,6.25698438 15.9684531,7.03746875 15.9684531,8.00001562 C15.9684531,8.9625625 15.1879531,9.74304687 14.2253438,9.74304687 C13.2627656,9.74304687 12.4822344,8.9625625 12.4822344,8.00001562 C12.4822344,7.03746875 13.2627656,6.25698438 14.2253438,6.25698438 Z" id="形状" fill="#929AA8"></path>
        </g>
    </g>
</svg>