<?xml version="1.0" encoding="UTF-8"?>
<svg width="16px" height="16px" viewBox="0 0 16 16" version="1.1" xmlns="http://www.w3.org/2000/svg" xmlns:xlink="http://www.w3.org/1999/xlink">
    <title>icon/16/日历</title>
    <g id="icon/16/日历" stroke="none" stroke-width="1" fill="none" fill-rule="evenodd">
        <g id="日历" fill-rule="nonzero">
            <rect id="矩形" fill="#000000" opacity="0" x="0" y="0" width="16" height="16"></rect>
            <path d="M10.784,4.976 C11.12,4.976 11.408,4.704 11.408,4.368 L11.408,1.608 C11.408,1.272 11.12,1 10.784,1 C10.448,1 10.176,1.272 10.176,1.608 L10.176,4.368 C10.176,4.704 10.448,4.976 10.784,4.976 Z M9.568,2.536 L6.496,2.536 L6.496,3.456 L9.568,3.456 L9.568,2.536 Z M13.16,2.536 L12.016,2.536 L12.016,3.448 L13.2,3.448 C13.552,3.448 13.84,3.744 13.84,4.088 L13.84,6.208 L2.224,6.208 L2.224,4.088 C2.224,3.736 2.52,3.448 2.864,3.448 L4.056,3.448 L4.056,2.536 L2.92,2.536 C2.04,2.536 1.312,3.264 1.312,4.144 L1.312,13.48 C1.312,14.368 2.008,15.088 2.888,15.088 L13.16,15.088 C14.04,15.088 14.768,14.368 14.768,13.48 L14.768,4.144 C14.768,3.256 14.048,2.536 13.16,2.536 Z M13.848,13.52 C13.848,13.872 13.552,14.16 13.208,14.16 L2.864,14.16 C2.512,14.16 2.224,13.864 2.224,13.52 L2.224,7.12 L13.856,7.12 L13.856,13.52 L13.848,13.52 Z M4.656,9.88 C5.168,9.88 5.576,9.464 5.576,8.96 C5.576,8.448 5.168,8.04 4.656,8.04 C4.144,8.04 3.736,8.456 3.736,8.96 C3.736,9.464 4.152,9.88 4.656,9.88 Z M8.024,9.88 C8.536,9.88 8.944,9.464 8.944,8.96 C8.944,8.448 8.528,8.04 8.024,8.04 C7.512,8.04 7.104,8.456 7.104,8.96 C7.104,9.464 7.52,9.88 8.024,9.88 Z M4.64,13.248 C5.152,13.248 5.56,12.832 5.56,12.328 C5.56,11.816 5.152,11.408 4.64,11.408 C4.128,11.408 3.72,11.824 3.72,12.328 C3.72,12.84 4.128,13.248 4.64,13.248 Z M8.024,13.248 C8.536,13.248 8.944,12.832 8.944,12.328 C8.944,11.816 8.528,11.408 8.024,11.408 C7.512,11.408 7.104,11.824 7.104,12.328 C7.104,12.84 7.52,13.248 8.024,13.248 Z M11.392,9.88 C11.904,9.88 12.312,9.464 12.312,8.96 C12.312,8.448 11.896,8.04 11.392,8.04 C10.88,8.04 10.472,8.456 10.472,8.96 C10.472,9.464 10.888,9.88 11.392,9.88 Z M5.272,4.976 C5.608,4.976 5.896,4.704 5.896,4.368 L5.896,1.608 C5.896,1.272 5.608,1 5.272,1 C4.936,1 4.664,1.272 4.664,1.608 L4.664,4.368 C4.664,4.704 4.936,4.976 5.272,4.976 Z" id="形状" fill="#929AA8"></path>
        </g>
    </g>
</svg>