<?xml version="1.0" encoding="UTF-8"?>
<svg width="16px" height="16px" viewBox="0 0 16 16" version="1.1" xmlns="http://www.w3.org/2000/svg" xmlns:xlink="http://www.w3.org/1999/xlink">
    <title>icon/16/更多</title>
    <g id="icon/16/更多" stroke="none" stroke-width="1" fill="none" fill-rule="evenodd">
        <g id="下--拉" transform="translate(8.068278, 8.000000) rotate(-90.000000) translate(-8.068278, -8.000000) translate(2.068278, 1.931722)" fill-rule="nonzero">
            <rect id="矩形" fill="#000000" opacity="0" x="0" y="0" width="12" height="12"></rect>
            <path d="M6.54263822,6.86501333 C6.38246756,7.025184 6.16510933,7.17392 5.95917156,7.12815289 C5.753248,7.16247111 5.55875911,7.00230044 5.39860267,6.86501333 L0.444945778,1.88847289 C0.193255111,1.63679644 0.193255111,1.22493511 0.444945778,0.973244444 C0.696636444,0.721553778 1.10848356,0.721568 1.36016,0.973244444 L5.97062044,5.70954311 L10.5925156,0.973258667 C10.844192,0.721568 11.2560533,0.721568 11.5077298,0.973258667 C11.7594062,1.22494933 11.7594204,1.63679644 11.5077298,1.88847289 L6.54263822,6.86501333 Z" id="路径" fill="#929AA8"></path>
            <path d="M6.54263822,11.8650133 C6.38246756,12.025184 6.16510933,12.17392 5.95917156,12.1281529 C5.753248,12.1624711 5.55875911,12.0023004 5.39860267,11.8650133 L0.444945778,6.88847289 C0.193255111,6.63679644 0.193255111,6.22493511 0.444945778,5.97324444 C0.696636444,5.72155378 1.10848356,5.721568 1.36016,5.97324444 L5.97062044,10.7095431 L10.5925156,5.97325867 C10.844192,5.721568 11.2560533,5.721568 11.5077298,5.97325867 C11.7594062,6.22494933 11.7594204,6.63679644 11.5077298,6.88847289 L6.54263822,11.8650133 Z" id="路径备份" fill="#929AA8"></path>
        </g>
    </g>
</svg>