<?xml version="1.0" encoding="UTF-8"?>
<svg width="50px" height="40px" viewBox="0 0 50 40" version="1.1" xmlns="http://www.w3.org/2000/svg" xmlns:xlink="http://www.w3.org/1999/xlink">
    <title>路径</title>
    <g id="Upload-上传" stroke="none" stroke-width="1" fill="none" fill-rule="evenodd">
        <g transform="translate(-752.000000, -675.000000)" fill="#D3D7DE" fill-rule="nonzero" id="编组-15">
            <g transform="translate(583.000000, 601.000000)">
                <g id="编组-12" transform="translate(24.000000, 34.000000)">
                    <g id="上传" transform="translate(145.000000, 40.000000)">
                        <path d="M39.2180863,12.2120961 C38.5468366,5.35763602 32.7056785,0 25.5952381,0 C18.5719875,0 12.7917505,5.22894227 12.0036888,11.9613366 C5.20176616,13.0405965 0,18.8550124 0,25.8823529 C0,33.6790942 6.3961547,40 14.2857143,40 L21.5593561,40 L21.5593561,27.0588235 L11.6420747,27.0588235 L25,12.9411765 L38.3579253,27.0588235 L28.7022133,27.0588235 L28.7022133,40 L36.9047619,40 L36.9047619,39.9392433 C44.2359714,39.3416184 50,33.2819663 50,25.8823529 C50,19.2819663 45.4107981,13.7586302 39.2180863,12.2120961 Z" id="路径"></path>
                    </g>
                </g>
            </g>
        </g>
    </g>
</svg>