<?xml version="1.0" encoding="UTF-8"?>
<svg width="14px" height="14px" viewBox="0 0 14 14" version="1.1" xmlns="http://www.w3.org/2000/svg" xmlns:xlink="http://www.w3.org/1999/xlink">
    <title>icon/14/深色/关闭分屏</title>
    <g id="icon/14/深色/关闭分屏" stroke="none" stroke-width="1" fill="none" fill-rule="evenodd">
        <rect id="矩形" fill-opacity="0" fill="#FFFFFF" x="0" y="0" width="14" height="14"></rect>
        <path d="M2.91191022,1.74296081 L7.02,5.865 L11.0880898,1.78387553 C11.4109465,1.45992786 11.9350023,1.45992786 12.2578589,1.78387553 C12.5807138,2.10782491 12.5807138,2.6336544 12.257858,2.95760293 L8.189,7.039 L12.1799764,11.0423971 C12.5028322,11.3663456 12.5028322,11.8921751 12.1799772,12.2161245 C11.8571206,12.5400721 11.3330648,12.5400721 11.0102081,12.2161245 L7.02,8.212 L2.98979191,12.2570392 C2.66693526,12.5809869 2.14287947,12.5809869 1.82002282,12.2570392 C1.49716788,11.9330898 1.49716788,11.4072603 1.82002368,11.0833118 L5.85,7.039 L1.74214198,2.91668821 C1.41928618,2.59273968 1.41928618,2.06691019 1.74214113,1.74296081 C2.06499778,1.41901314 2.58905357,1.41901314 2.91191022,1.74296081 Z" id="形状结合" fill="#FFFFFF" fill-rule="nonzero"></path>
    </g>
</svg>