<?xml version="1.0" encoding="UTF-8"?>
<svg width="13px" height="10px" viewBox="0 0 13 10" version="1.1" xmlns="http://www.w3.org/2000/svg" xmlns:xlink="http://www.w3.org/1999/xlink">
    <title>1-Arrow/chevrons-left</title>
    <defs>
        <path d="M0.60025,9.53325 C0.44725,9.53325 0.29325,9.47425 0.17625,9.35725 C-0.05875,9.12425 -0.05875,8.74425 0.17625,8.51025 L3.91825,4.76625 L0.17625,1.02425 C-0.05875,0.79025 -0.05875,0.41025 0.17625,0.17625 C0.41025,-0.05875 0.79025,-0.05875 1.02425,0.17625 L5.19125,4.34225 C5.42525,4.57625 5.42525,4.95625 5.19125,5.19125 L1.02425,9.35725 C0.90725,9.47425 0.75325,9.53325 0.60025,9.53325 L0.60025,9.53325 Z M7.10025,9.53325 C6.94725,9.53325 6.79325,9.47425 6.67625,9.35725 C6.44125,9.12425 6.44125,8.74425 6.67625,8.51025 L10.41825,4.76625 L6.67625,1.02425 C6.44125,0.79025 6.44125,0.41025 6.67625,0.17625 C6.91025,-0.05875 7.29025,-0.05875 7.52425,0.17625 L11.69125,4.34225 C11.92525,4.57625 11.92525,4.95625 11.69125,5.19125 L7.52425,9.35725 C7.40725,9.47425 7.25325,9.53325 7.10025,9.53325 L7.10025,9.53325 Z" id="path-1"></path>
    </defs>
    <g id="DatePicker-日期选择器" stroke="none" stroke-width="1" fill="none" fill-rule="evenodd">
        <g transform="translate(-735.000000, -2470.000000)" id="编组-13备份">
            <g transform="translate(583.000000, 1995.000000)">
                <g id="编组-5" transform="translate(0.000000, 40.000000)">
                    <g id="DatePicker-日期选择/Single/Panel/Day/1-Normal备份-3" transform="translate(137.000000, 414.000000)">
                        <g id="control" transform="translate(12.000000, 16.000000)">
                            <g id="1-Arrow/chevrons-left" transform="translate(9.633375, 9.966625) rotate(-360.000000) translate(-9.633375, -9.966625) translate(3.700000, 5.200000)">
                                <mask id="mask-2" fill="white">
                                    <use xlink:href="#path-1"></use>
                                </mask>
                                <use id="形状结合" fill="#929AA8" transform="translate(5.933375, 4.766625) scale(-1, 1) translate(-5.933375, -4.766625) " xlink:href="#path-1"></use>
                                <rect id="Color" fill="#929AA8" mask="url(#mask-2)" x="-3.7" y="-5.2" width="20" height="20"></rect>
                            </g>
                        </g>
                    </g>
                </g>
            </g>
        </g>
    </g>
</svg>