<?xml version="1.0" encoding="UTF-8"?>
<svg width="16px" height="16px" viewBox="0 0 16 16" version="1.1" xmlns="http://www.w3.org/2000/svg" xmlns:xlink="http://www.w3.org/1999/xlink">
    <title>icon/09上传文档/doc</title>
    <g id="Upload-上传" stroke="none" stroke-width="1" fill="none" fill-rule="evenodd">
        <g transform="translate(-615.000000, -343.000000)" fill-rule="nonzero" id="编组-10">
            <g transform="translate(583.000000, 213.000000)">
                <g id="编组-9" transform="translate(24.000000, 92.000000)">
                    <g id="编组-7备份" transform="translate(0.000000, 32.000000)">
                        <g id="编组-6" transform="translate(8.000000, 4.000000)">
                            <g id="excel" transform="translate(0.000000, 2.000000)">
                                <rect id="矩形" fill="#000000" opacity="0" x="0" y="0" width="16" height="16"></rect>
                                <g id="excel" transform="translate(1.333333, 0.000000)">
                                    <path d="M0.796178344,0 C0.597133758,0 0.384819533,0.0796178344 0.238853503,0.238853503 C0.0928874735,0.398089172 0,0.597133758 0,0.796178344 L0,15.1273885 C0,15.3264331 0.0796178344,15.5387473 0.238853503,15.6847134 C0.398089172,15.843949 0.597133758,15.9235669 0.796178344,15.9235669 L12.4734607,15.9235669 C12.6725053,15.9235669 12.8848195,15.843949 13.0307856,15.6847134 C13.1900212,15.5254777 13.2696391,15.3264331 13.2696391,15.1273885 L13.2696391,4.51167728 L8.75796178,0 L0.796178344,0 Z" id="路径" fill="#387EFA"></path>
                                    <polygon id="W" fill="#FFFFFF" points="4.47737294 6.17142857 3.68820113 6.17142857 3.58499227 6.30661484 4.90027862 11.1212045 5.00348748 11.2 5.75416311 11.2 5.85794991 11.1189966 6.69642808 7.76666261 7.53668942 11.1189966 7.64047623 11.2 8.38473582 11.2 8.48790965 11.1213324 9.80961204 6.30674276 9.70643821 6.17142857 8.9172664 6.17142857 8.81317979 6.25366005 8.0102761 9.62723404 7.16683344 6.25248478 7.06303344 6.17142857 6.3316059 6.17142857 6.2278059 6.25248478 5.38364996 9.62830395 4.58145954 6.25366005"></polygon>
                                    <path d="M13.2696391,4.51167728 L9.55414013,4.51167728 C9.35509554,4.51167728 9.14278132,4.43205945 8.99681529,4.27282378 C8.83757962,4.12685775 8.75796178,3.91454352 8.75796178,3.71549894 L8.75796178,0 L13.2696391,4.51167728 Z" id="路径" fill="#92B9FF" opacity="0.765420823"></path>
                                </g>
                            </g>
                        </g>
                    </g>
                </g>
            </g>
        </g>
    </g>
</svg>