<?xml version="1.0" encoding="UTF-8"?>
<svg width="16px" height="16px" viewBox="0 0 16 16" version="1.1" xmlns="http://www.w3.org/2000/svg" xmlns:xlink="http://www.w3.org/1999/xlink">
    <title>icon/09上传文档/pdf</title>
    <g id="Upload-上传" stroke="none" stroke-width="1" fill="none" fill-rule="evenodd">
        <g transform="translate(-615.000000, -375.000000)" fill-rule="nonzero" id="编组-10">
            <g transform="translate(583.000000, 213.000000)">
                <g id="编组-9" transform="translate(24.000000, 92.000000)">
                    <g id="编组-7备份-3" transform="translate(0.000000, 64.000000)">
                        <g id="编组-6" transform="translate(8.000000, 4.000000)">
                            <g id="icon/09上传文档/pdf" transform="translate(0.000000, 2.000000)">
                                <g id="excel">
                                    <rect id="矩形" fill="#000000" opacity="0" x="0" y="0" width="16" height="16"></rect>
                                    <g id="excel" transform="translate(1.333333, 0.000000)">
                                        <path d="M0.796178344,0 C0.597133758,0 0.384819533,0.0796178344 0.238853503,0.238853503 C0.0928874735,0.398089172 0,0.597133758 0,0.796178344 L0,15.1273885 C0,15.3264331 0.0796178344,15.5387473 0.238853503,15.6847134 C0.398089172,15.843949 0.597133758,15.9235669 0.796178344,15.9235669 L12.4734607,15.9235669 C12.6725053,15.9235669 12.8848195,15.843949 13.0307856,15.6847134 C13.1900212,15.5254777 13.2696391,15.3264331 13.2696391,15.1273885 L13.2696391,4.51167728 L8.75796178,0 L0.796178344,0 Z" id="路径" fill="#FF6464"></path>
                                        <path d="M13.2696391,4.51167728 L9.55414013,4.51167728 C9.35509554,4.51167728 9.14278132,4.43205945 8.99681529,4.27282378 C8.83757962,4.12685775 8.75796178,3.91454352 8.75796178,3.71549894 L8.75796178,0 L13.2696391,4.51167728 Z" id="路径" fill="#FFB1B1" opacity="0.597817"></path>
                                    </g>
                                </g>
                                <g id="pdf" transform="translate(4.685714, 5.028571)">
                                    <rect id="矩形" fill="#000000" opacity="0" x="0" y="0" width="6.85714286" height="6.85714286"></rect>
                                    <path d="M5.90333334,5.11950348 C5.38917205,5.0813136 4.89405377,4.89036422 4.49415055,4.54665533 C3.7133871,4.71850977 2.97070968,4.96674397 2.22803226,5.27226298 C1.63769893,6.32248458 1.08545161,6.85714286 0.609376344,6.85714286 C0.514161291,6.85714286 0.399903224,6.83804792 0.323731186,6.7807631 C0.114258067,6.68528841 0,6.47524409 0,6.26519977 C0,6.09334533 0.0380860223,5.61597187 1.84717205,4.8330794 C2.26611828,4.06928187 2.58984946,3.2863894 2.85645162,2.46530706 C2.62793549,2.00702854 2.13281721,0.880427184 2.4755914,0.307579039 C2.58984946,0.0975347172 2.8183656,-0.0170349146 3.06592474,0.00206002068 C3.25635484,0.00206002068 3.44678496,0.0975347105 3.56104302,0.250294219 C3.80860216,0.594003108 3.78955914,1.31961076 3.46582796,2.38892731 C3.77051613,2.96177545 4.17041936,3.47733878 4.64649463,3.91652237 C5.04639785,3.84014261 5.44630108,3.7828578 5.84620431,3.7828578 C6.74122581,3.80195273 6.87452689,4.22204137 6.85548388,4.47027557 C6.85548388,5.11950347 6.22706452,5.11950347 5.90333334,5.11950348 L5.90333334,5.11950348 Z M0.571290321,6.30338965 L0.628419358,6.28429471 C0.895021508,6.18882002 1.10449463,5.99787064 1.25683871,5.74963644 C0.971193545,5.86420607 0.742677418,6.05515545 0.571290321,6.30338965 Z M3.10401075,0.574908173 L3.04688172,0.574908173 C3.02783872,0.574908173 2.98975269,0.574908173 2.97070968,0.594003108 C2.89453764,0.918617061 2.95166667,1.26232595 3.08496775,1.56784496 C3.19922581,1.24323101 3.19922581,0.899522119 3.10401075,0.574908173 L3.10401075,0.574908173 Z M3.23731184,3.34367422 L3.21826882,3.38186409 L3.19922581,3.36276916 C3.02783872,3.80195274 2.83740861,4.24113632 2.62793549,4.66122496 L2.66602151,4.64213002 L2.66602151,4.68031989 C3.08496775,4.52756038 3.542,4.39389582 3.96094624,4.29842113 L3.94190323,4.27932619 L3.99903226,4.27932619 C3.7133871,3.99290212 3.44678495,3.66828817 3.23731184,3.34367422 L3.23731184,3.34367422 Z M5.8271613,4.35570595 C5.6557742,4.35570595 5.50343011,4.35570595 5.33204302,4.39389582 C5.52247312,4.48937051 5.71290323,4.52756039 5.90333334,4.54665533 C6.03663442,4.56575026 6.16993549,4.54665533 6.28419356,4.50846545 C6.28419356,4.45118064 6.20802152,4.35570595 5.8271613,4.35570595 Z" id="形状" fill="#FFFFFF"></path>
                                </g>
                            </g>
                        </g>
                    </g>
                </g>
            </g>
        </g>
    </g>
</svg>