<?xml version="1.0" encoding="UTF-8"?>
<svg width="16px" height="16px" viewBox="0 0 16 16" version="1.1" xmlns="http://www.w3.org/2000/svg" xmlns:xlink="http://www.w3.org/1999/xlink">
    <title>icon/09上传文档/xls</title>
    <g id="Upload-上传" stroke="none" stroke-width="1" fill="none" fill-rule="evenodd">
        <g transform="translate(-615.000000, -311.000000)" fill-rule="nonzero" id="编组-10">
            <g transform="translate(583.000000, 213.000000)">
                <g id="编组-9" transform="translate(24.000000, 92.000000)">
                    <g id="编组-6" transform="translate(8.000000, 4.000000)">
                        <g id="excel" transform="translate(0.000000, 2.000000)">
                            <rect id="矩形" fill="#000000" opacity="0" x="0" y="0" width="16" height="16"></rect>
                            <g id="excel" transform="translate(1.333333, 0.000000)">
                                <path d="M0.796178344,0 C0.597133758,0 0.384819533,0.0796178344 0.238853503,0.238853503 C0.0928874735,0.398089172 0,0.597133758 0,0.796178344 L0,15.1273885 C0,15.3264331 0.0796178344,15.5387473 0.238853503,15.6847134 C0.398089172,15.843949 0.597133758,15.9235669 0.796178344,15.9235669 L12.4734607,15.9235669 C12.6725053,15.9235669 12.8848195,15.843949 13.0307856,15.6847134 C13.1900212,15.5254777 13.2696391,15.3264331 13.2696391,15.1273885 L13.2696391,4.51167728 L8.75796178,0 L0.796178344,0 Z" id="路径" fill="#7ABE6A"></path>
                                <path d="M13.2696391,4.51167728 L9.55414013,4.51167728 C9.35509554,4.51167728 9.14278132,4.43205945 8.99681529,4.27282378 C8.83757962,4.12685775 8.75796178,3.91454352 8.75796178,3.71549894 L8.75796178,0 L13.2696391,4.51167728 Z" id="路径" fill="#CCEAB8" opacity="0.597817"></path>
                                <polygon id="路径" fill="#FFFFFF" points="6.02441614 8.38641189 4.21974522 5.86518047 5.4670913 5.86518047 6.64808917 7.66985138 7.88216561 5.86518047 9.08970276 5.86518047 7.24522293 8.38641189 9.18259023 11.066879 7.92197452 11.066879 6.62154989 9.15605096 5.32112527 11.0801486 4.08704883 11.0801486"></polygon>
                            </g>
                        </g>
                    </g>
                </g>
            </g>
        </g>
    </g>
</svg>