<?xml version="1.0" encoding="UTF-8"?>
<svg width="12px" height="12px" viewBox="0 0 12 12" version="1.1" xmlns="http://www.w3.org/2000/svg" xmlns:xlink="http://www.w3.org/1999/xlink">
    <title>icon/12/关闭/深色</title>
    <g id="icon/12/关闭/深色" stroke="none" stroke-width="1" fill="none" fill-rule="evenodd">
        <g id="编组-6" fill="#FFFFFF">
            <circle id="椭圆形" fill-opacity="0.3" cx="6" cy="6" r="6"></circle>
            <g id="关--闭" transform="translate(3.448257, 3.610646)" fill-rule="nonzero">
                <path d="M2.9696032,2.57141565 L5.06357147,0.476554899 C5.1692857,0.370831795 5.1692857,0.196486853 5.06357147,0.0907293008 L5.05217361,0.0792923277 C4.94645938,-0.0264307759 4.77222028,-0.0264307759 4.66647162,0.0792923277 L2.57250335,2.17701233 L0.478500653,0.0792923277 C0.372786419,-0.0264307759 0.198512889,-0.0264307759 0.0928330895,0.0792923277 L0.081400801,0.0907293008 C0.0293570669,0.141409761 0,0.210983449 0,0.2836421 C0,0.356300751 0.0293570669,0.425874439 0.081400801,0.476554899 L2.1754035,2.57141565 L0.081400801,4.66631086 C-0.0242789984,4.77203396 -0.0242789984,4.94641335 0.081400801,5.05210201 L0.0928330895,5.06353898 C0.198512889,5.16929653 0.372786419,5.16929653 0.478500653,5.06353898 L2.57250335,2.96867822 L4.66647162,5.06353898 C4.77222028,5.16929653 4.94645938,5.16929653 5.05217361,5.06353898 L5.06357147,5.05210201 C5.1692857,4.94641335 5.1692857,4.77203396 5.06357147,4.66631086 L2.9696032,2.57141565 L2.9696032,2.57141565 Z" id="路径"></path>
            </g>
        </g>
    </g>
</svg>