<?xml version="1.0" encoding="UTF-8"?>
<svg width="14px" height="14px" viewBox="0 0 14 14" version="1.1" xmlns="http://www.w3.org/2000/svg" xmlns:xlink="http://www.w3.org/1999/xlink">
    <title>icon/12/浅色/上传成功</title>
    <g id="Upload-上传" stroke="none" stroke-width="1" fill="none" fill-rule="evenodd">
        <g transform="translate(-925.000000, -376.000000)" fill="#49AA19" fill-rule="nonzero" id="编组-10">
            <g transform="translate(583.000000, 213.000000)">
                <g id="编组-9" transform="translate(24.000000, 92.000000)">
                    <g id="编组-7备份-3" transform="translate(0.000000, 64.000000)">
                        <g id="数译_终止-取消" transform="translate(318.000000, 7.000000)">
                            <rect id="矩形" opacity="0" x="0" y="0" width="13.5757576" height="13.5757576"></rect>
                            <path d="M6.99787879,0.21 C10.7312121,0.21 13.7857576,3.26454545 13.7857576,6.99787879 C13.7857576,10.7312121 10.7312121,13.7857576 6.99787879,13.7857576 C3.26454545,13.7857576 0.21,10.7312121 0.21,6.99787879 C0.21,3.26454545 3.26454545,0.21 6.99787879,0.21 Z M6.99787879,1.34131313 C3.88676767,1.34131313 1.34131313,3.88676767 1.34131313,6.99787879 C1.34131313,10.1089899 3.88676767,12.6544444 6.99787879,12.6544444 C10.1089899,12.6544444 12.6544444,10.1089899 12.6544444,6.99787879 C12.6544444,3.88676767 10.1089899,1.34131313 6.99787879,1.34131313 Z M10.6373588,4.94587571 C10.8773465,5.18586346 10.8373486,5.5458451 10.6373588,5.74583489 L6.96033166,9.42365027 C6.92606524,9.48705771 6.87871684,9.54995055 6.81857176,9.61009563 C6.57858401,9.85008338 6.26391256,9.85539562 6.10923296,9.70071601 L3.63435921,7.22584227 C3.44874368,7.04022674 3.48499184,6.75649121 3.7249796,6.51650346 C3.96496735,6.2765157 4.24870288,6.24026755 4.43431841,6.42588307 L6.39599889,8.38652391 L9.83739958,4.9458757 C10.0773873,4.70588794 10.397371,4.70588795 10.6373588,4.94587571 Z" id="形状结合"></path>
                        </g>
                    </g>
                </g>
            </g>
        </g>
    </g>
</svg>